<?xml version="1.0" encoding="utf-8"?>
<!-- Generator: Adobe Illustrator 26.3.1, SVG Export Plug-In . SVG Version: 6.00 Build 0)  -->
<svg version="1.1" id="Camada_1" xmlns="http://www.w3.org/2000/svg" xmlns:xlink="http://www.w3.org/1999/xlink" x="0px" y="0px"
	 viewBox="0 0 500 500" style="enable-background:new 0 0 500 500;" xml:space="preserve">
<style type="text/css">
	.st0{stroke:#000000;stroke-miterlimit:10;}
	.st1{fill:#FFFFFF;stroke:#000000;stroke-miterlimit:10;}
</style>
<g>
	<polygon class="st0" points="479,250.35 249.93,464.89 20.86,250.35 249.93,35.81 	"/>
	<g>
		<path class="st1" d="M191.18,327.86l0-112.03l0.08-0.78l37.9,0.29h1.04l-0.05,144.02l0.6,0.35l19.66,10.63l0.71,0.15l85.64-34.55
			c8.1-3.27,14.37-9.72,16.68-17.7c5.33-18.45-15.64-24.34-22.18-25.54c-1.02-0.19-2.06-0.28-3.1-0.28h-38.37l0.24,1.21v18.02
			l0.8-0.25h38.05c1.64,0,3.26,0.44,4.56,1.37c1.49,1.06,2.61,2.77,0.55,5.17c-0.85,0.99-1.98,1.73-3.23,2.23l-79.37,31.4
			l-0.48-0.12V236.25l-0.09-1.61c0,0,41.02-24.67,78.71,0l0.24-1.34v-17.47l-0.24-0.16c-37.69-24.67-78.71,0-78.71,0l-0.39-1.78
			l0.55-77.8l-1.07-0.76L231,123.06l-0.8-0.55l-0.05,0.94v70.99l0.05,1.46l-38.63,0.18l-0.83-0.18l0.44-57.85l-0.44-0.5l-18.69,10.7
			l-1.14,0.55v167.2l0.01,1.06l20.26,10.28L191.18,327.86z"/>
		<line class="st1" x1="308.51" y1="340.42" x2="308.51" y2="340.42"/>
	</g>
</g>
</svg>
